<svg viewBox="0 0 48 48" xml:space="preserve" xmlns="http://www.w3.org/2000/svg"><path clip-rule="evenodd" d="M36.992 20.483v4.02l-3.485 2.011-2.01 3.482h-.511l.001.004v15l-.002.011a.97.97 0 0 1-.988.987l-.01.002a.978.978 0 0 1-.775-.395l-5.225-5.225-5.225 5.225a.977.977 0 0 1-.775.395l-.01-.002a.97.97 0 0 1-.988-.987L16.987 45V30l.001-.004h-.507l-2.012-3.482-3.484-2.011v-4.02l-2.011-3.482 2.011-3.483V9.495l3.484-2.013 2.012-3.479h4.025l3.48-2.012 3.484 2.012h4.025l2.01 3.479 3.485 2.013v4.022L39 17.001l-2.008 3.482zM18.987 30v12.619l4.19-4.19c.032-.047.053-.101.095-.144a.975.975 0 0 1 .715-.281.975.975 0 0 1 .715.281c.042.043.062.097.095.144l4.19 4.19V30l.001-.004h-1.517l-3.484 2.013-3.48-2.013h-1.521l.001.004zm16-15.948v-3.403l-2.948-1.703-1.699-2.943h-3.406l-2.945-1.701-2.943 1.701H17.64l-1.701 2.942-2.949 1.703v3.404l-1.701 2.949 1.701 2.947v3.4l2.949 1.702 1.701 2.945h3.405l2.943 1.701 2.945-1.701h3.405l1.699-2.945 2.949-1.702v-3.399l1.7-2.948-1.699-2.949z" fill-rule="evenodd" fill="#5ce4ff" class="fill-000000"></path></svg>